<?xml version="1.0" encoding="utf-8"?>
<!-- Generator: Adobe Illustrator 16.0.0, SVG Export Plug-In . SVG Version: 6.00 Build 0)  -->
<!DOCTYPE svg PUBLIC "-//W3C//DTD SVG 1.1 Basic//EN" "http://www.w3.org/Graphics/SVG/1.1/DTD/svg11-basic.dtd">
<svg version="1.1" baseProfile="basic" id="Layer_1"
	 xmlns="http://www.w3.org/2000/svg" xmlns:xlink="http://www.w3.org/1999/xlink" x="0px" y="0px" width="1080px" height="1080px"
	 viewBox="0 0 1080 1080" xml:space="preserve">
<polygon fill="#18A2DC" points="761.104,601.244 689.167,601.244 497.828,432.013 581.73,264.812 711.449,301.29 590.865,288.113 
	526,423.91 700.303,585.034 "/>
<polygon fill="#18A2DC" points="547.292,426.952 666.857,445.192 726.646,323.583 681.046,458.361 718.546,527.276 659.771,467.483 
	"/>
<polygon fill="#18A2DC" points="716.519,303.315 737.803,303.315 791.519,469.5 730.712,316.487 "/>
<polygon fill="#E71C3B" points="699.3,291.149 726.646,242.511 818.876,260.757 852.326,447.215 804.693,276.964 733.758,260.757 
	"/>
<polygon fill="#E71C3B" points="761.104,361.076 763.228,381.973 799.629,287.105 "/>
<polygon fill="#B3BB35" points="806.721,654.96 754.019,575.915 806.721,443.165 961.759,475.599 815.845,464.439 771.254,571.859 
	"/>
<polygon fill="#B3BB35" points="791.519,580.65 905.012,616.446 894.89,668.124 825.978,660.023 905.012,690.428 961.759,488.762 
	910.081,596.186 "/>
<polygon points="137.335,745.141 117.969,745.141 117.969,607.576 160.711,607.576 204.113,676.361 204.113,607.576 
	223.484,607.576 223.484,745.141 201.443,745.141 137.335,644.971 "/>
<polygon points="256.205,607.571 256.205,745.141 337.673,745.141 337.673,729.122 290.263,729.122 290.263,685.04 337.673,685.04 
	337.673,667.684 289.605,667.684 289.605,624.938 337.673,624.938 337.673,607.571 "/>
<polygon points="366.397,607.571 366.397,745.141 447.873,745.141 447.873,729.122 400.455,729.122 400.455,685.04 447.873,685.04 
	447.873,667.684 399.792,667.684 399.792,624.938 447.873,624.938 447.873,607.571 "/>
<polygon points="463.903,607.571 463.903,624.938 497.828,624.938 497.828,745.141 533.354,745.141 533.354,624.27 568.078,624.27 
	568.078,607.571 "/>
<polygon points="588.109,607.571 622.845,607.571 622.845,667.02 665.573,667.02 665.573,607.571 699.3,607.571 699.3,745.141 
	665.573,745.141 665.573,685.703 622.845,685.703 622.845,745.141 588.109,745.141 "/>
<rect x="733.7" y="607.576" width="34.061" height="137.564"/>
<path fill="#939598" d="M146.406,822.849c0,0.728-0.032,1.338-0.104,1.815c-0.053,0.488-0.146,0.881-0.266,1.184
	c-0.135,0.303-0.289,0.515-0.472,0.658c-0.186,0.133-0.393,0.196-0.621,0.196H120.62c-0.825,0-1.515-0.233-2.08-0.722
	c-0.561-0.488-0.844-1.285-0.844-2.378v-42.219c0-1.094,0.284-1.89,0.844-2.378c0.565-0.483,1.255-0.728,2.08-0.728h24.178
	c0.229,0,0.417,0.059,0.592,0.186c0.175,0.117,0.326,0.34,0.451,0.658c0.125,0.308,0.229,0.701,0.284,1.189
	c0.063,0.488,0.096,1.104,0.096,1.853c0,0.705-0.032,1.289-0.096,1.777c-0.056,0.494-0.159,0.882-0.284,1.184
	c-0.125,0.303-0.276,0.526-0.451,0.653c-0.175,0.138-0.363,0.207-0.592,0.207h-17.301v11.831h14.642
	c0.229,0,0.435,0.064,0.621,0.202c0.172,0.138,0.348,0.351,0.462,0.637c0.125,0.286,0.223,0.674,0.275,1.157
	c0.072,0.482,0.099,1.083,0.099,1.783c0,0.728-0.026,1.316-0.099,1.794c-0.053,0.478-0.151,0.85-0.275,1.142
	c-0.114,0.292-0.29,0.494-0.462,0.621c-0.186,0.122-0.393,0.181-0.621,0.181h-14.642v13.662h17.447c0.228,0,0.435,0.069,0.621,0.212
	c0.183,0.133,0.337,0.356,0.472,0.648c0.12,0.303,0.212,0.7,0.266,1.178C146.374,821.521,146.406,822.127,146.406,822.849"/>
<path fill="#939598" d="M187.951,825.434c0,0.255-0.077,0.467-0.229,0.664c-0.141,0.18-0.398,0.339-0.751,0.461
	c-0.348,0.122-0.825,0.223-1.428,0.276c-0.626,0.069-1.37,0.101-2.272,0.101c-0.921,0-1.69-0.031-2.312-0.101
	c-0.602-0.054-1.085-0.154-1.436-0.276c-0.353-0.122-0.592-0.281-0.743-0.461c-0.151-0.197-0.228-0.409-0.228-0.664v-19.05
	c0-1.624-0.114-2.894-0.348-3.816c-0.245-0.919-0.587-1.715-1.033-2.373c-0.451-0.669-1.038-1.178-1.741-1.539
	c-0.717-0.36-1.542-0.547-2.495-0.547c-1.194,0-2.407,0.44-3.636,1.316c-1.21,0.87-2.489,2.14-3.809,3.816v22.192
	c0,0.255-0.077,0.467-0.223,0.664c-0.148,0.18-0.414,0.339-0.772,0.461c-0.363,0.122-0.844,0.223-1.441,0.276
	c-0.592,0.069-1.358,0.101-2.277,0.101c-0.929,0-1.69-0.031-2.288-0.101c-0.6-0.054-1.077-0.154-1.452-0.276
	c-0.353-0.122-0.608-0.281-0.762-0.461c-0.146-0.197-0.217-0.409-0.217-0.664v-33.381c0-0.255,0.061-0.468,0.186-0.658
	c0.119-0.191,0.342-0.34,0.674-0.468c0.321-0.122,0.743-0.223,1.25-0.275c0.51-0.069,1.152-0.101,1.935-0.101
	c0.794,0,1.457,0.031,1.972,0.101c0.534,0.053,0.932,0.153,1.229,0.275c0.284,0.128,0.496,0.276,0.61,0.468
	c0.13,0.19,0.188,0.403,0.188,0.658v3.854c1.844-1.996,3.724-3.493,5.632-4.491c1.908-0.997,3.896-1.497,5.968-1.497
	c2.277,0,4.196,0.372,5.751,1.126c1.552,0.743,2.813,1.763,3.771,3.047c0.971,1.284,1.656,2.781,2.086,4.512
	c0.425,1.72,0.637,3.79,0.637,6.21V825.434z"/>
<path fill="#939598" d="M217.776,822.148c0,1.093-0.077,1.938-0.207,2.516c-0.136,0.595-0.321,1.003-0.544,1.236
	c-0.233,0.239-0.549,0.451-0.987,0.643c-0.435,0.181-0.953,0.34-1.54,0.483c-0.581,0.132-1.218,0.244-1.908,0.323
	c-0.685,0.074-1.375,0.106-2.075,0.106c-1.865,0-3.49-0.233-4.859-0.712c-1.38-0.467-2.511-1.199-3.413-2.187
	c-0.886-0.987-1.561-2.229-1.985-3.726c-0.43-1.497-0.629-3.27-0.629-5.313v-17.107h-4.018c-0.467,0-0.825-0.297-1.069-0.881
	c-0.258-0.584-0.383-1.561-0.383-2.94c0-0.712,0.029-1.327,0.093-1.826c0.066-0.499,0.151-0.902,0.29-1.179
	c0.114-0.286,0.275-0.493,0.461-0.626c0.183-0.117,0.406-0.181,0.653-0.181h3.973v-7.452c0-0.244,0.058-0.473,0.194-0.674
	c0.148-0.197,0.393-0.366,0.751-0.505c0.369-0.132,0.852-0.233,1.462-0.297c0.613-0.059,1.364-0.096,2.267-0.096
	c0.924,0,1.686,0.037,2.299,0.096c0.621,0.063,1.093,0.165,1.446,0.297c0.348,0.139,0.603,0.308,0.756,0.505
	c0.146,0.201,0.213,0.43,0.213,0.674v7.452h7.266c0.25,0,0.467,0.063,0.656,0.181c0.186,0.133,0.332,0.34,0.47,0.626
	c0.119,0.276,0.218,0.68,0.276,1.179c0.061,0.499,0.093,1.114,0.093,1.826c0,1.38-0.12,2.356-0.369,2.94
	c-0.258,0.584-0.621,0.881-1.099,0.881h-7.293v15.68c0,1.825,0.286,3.19,0.857,4.103c0.582,0.908,1.603,1.37,3.071,1.37
	c0.507,0,0.953-0.048,1.354-0.133c0.393-0.091,0.751-0.191,1.066-0.303c0.308-0.111,0.571-0.207,0.789-0.303
	c0.199-0.085,0.401-0.127,0.571-0.127c0.156,0,0.297,0.042,0.433,0.127c0.148,0.096,0.252,0.266,0.315,0.525
	c0.077,0.266,0.154,0.621,0.212,1.067C217.744,820.874,217.776,821.442,217.776,822.148"/>
<path fill="#939598" d="M256.033,807.764c0,1.146-0.263,1.996-0.778,2.553c-0.512,0.547-1.218,0.823-2.115,0.823h-20.321
	c0,1.423,0.173,2.718,0.504,3.874c0.332,1.158,0.881,2.14,1.608,2.951c0.746,0.818,1.685,1.439,2.85,1.858
	c1.163,0.425,2.553,0.637,4.172,0.637c1.643,0,3.095-0.122,4.345-0.355c1.239-0.239,2.319-0.499,3.232-0.791
	c0.908-0.286,1.664-0.547,2.256-0.785c0.61-0.233,1.099-0.361,1.473-0.361c0.217,0,0.409,0.043,0.555,0.138
	c0.146,0.086,0.279,0.239,0.382,0.468c0.085,0.228,0.162,0.541,0.193,0.955c0.04,0.414,0.062,0.935,0.062,1.55
	c0,0.553-0.017,1.02-0.035,1.401c-0.031,0.393-0.068,0.722-0.114,0.998c-0.048,0.276-0.12,0.504-0.223,0.695
	c-0.101,0.186-0.233,0.366-0.396,0.536c-0.162,0.181-0.607,0.419-1.327,0.711c-0.727,0.298-1.64,0.595-2.771,0.881
	c-1.12,0.287-2.401,0.531-3.858,0.744c-1.446,0.223-2.991,0.323-4.631,0.323c-2.972,0-5.571-0.377-7.816-1.125
	c-2.229-0.749-4.092-1.885-5.581-3.402c-1.508-1.519-2.627-3.445-3.354-5.765c-0.741-2.325-1.104-5.031-1.104-8.164
	c0-2.961,0.393-5.637,1.152-8.025c0.783-2.377,1.902-4.405,3.375-6.062c1.468-1.661,3.256-2.93,5.366-3.8
	c2.113-0.871,4.493-1.307,7.128-1.307c2.8,0,5.186,0.404,7.177,1.227c1.977,0.834,3.609,1.97,4.88,3.435
	c1.276,1.46,2.206,3.185,2.811,5.181c0.592,2.001,0.902,4.172,0.902,6.513V807.764z M246.89,805.078
	c0.082-2.648-0.456-4.725-1.592-6.237c-1.125-1.502-2.882-2.261-5.255-2.261c-1.197,0-2.245,0.223-3.126,0.669
	c-0.886,0.451-1.619,1.056-2.203,1.82c-0.592,0.754-1.043,1.656-1.351,2.691c-0.315,1.034-0.491,2.139-0.544,3.317H246.89z"/>
<path fill="#939598" d="M286.747,795.163c0,0.892-0.016,1.624-0.077,2.202c-0.037,0.568-0.109,1.024-0.218,1.349
	c-0.096,0.323-0.233,0.547-0.39,0.674c-0.17,0.128-0.364,0.181-0.621,0.181c-0.194,0-0.417-0.043-0.671-0.127
	c-0.252-0.086-0.533-0.181-0.839-0.281c-0.311-0.091-0.658-0.191-1.032-0.282c-0.369-0.085-0.788-0.127-1.234-0.127
	c-0.528,0-1.048,0.106-1.576,0.318c-0.52,0.212-1.064,0.542-1.619,0.987c-0.565,0.451-1.157,1.051-1.768,1.799
	c-0.607,0.749-1.266,1.673-1.966,2.771v20.807c0,0.255-0.077,0.467-0.223,0.658c-0.141,0.186-0.403,0.334-0.767,0.467
	c-0.358,0.122-0.847,0.218-1.441,0.276c-0.603,0.069-1.358,0.101-2.277,0.101c-0.929,0-1.685-0.031-2.288-0.101
	c-0.592-0.059-1.08-0.154-1.441-0.276c-0.363-0.133-0.618-0.281-0.764-0.467c-0.154-0.191-0.223-0.403-0.223-0.658v-33.381
	c0-0.255,0.059-0.468,0.178-0.658c0.13-0.186,0.358-0.34,0.685-0.468c0.316-0.122,0.741-0.223,1.255-0.275
	c0.501-0.069,1.141-0.101,1.919-0.101c0.799,0,1.451,0.031,1.985,0.101c0.52,0.053,0.934,0.153,1.218,0.275
	c0.281,0.128,0.494,0.282,0.618,0.468c0.114,0.19,0.186,0.403,0.186,0.658v4.15c0.868-1.242,1.696-2.277,2.465-3.089
	c0.777-0.808,1.513-1.454,2.213-1.933c0.701-0.467,1.385-0.801,2.094-0.977c0.706-0.201,1.391-0.287,2.097-0.287
	c0.326,0,0.674,0.012,1.048,0.054c0.382,0.032,0.762,0.101,1.165,0.191c0.391,0.085,0.743,0.181,1.043,0.297
	c0.292,0.111,0.515,0.233,0.658,0.351c0.141,0.127,0.234,0.266,0.292,0.414c0.066,0.148,0.13,0.36,0.175,0.615
	c0.048,0.266,0.085,0.658,0.109,1.184C286.741,793.549,286.747,794.25,286.747,795.163"/>
<path fill="#939598" d="M327.7,808.258c0,2.967-0.316,5.642-0.953,8.03c-0.64,2.378-1.571,4.405-2.792,6.077
	c-1.224,1.672-2.742,2.962-4.573,3.854c-1.815,0.902-3.896,1.349-6.245,1.349c-0.979,0-1.863-0.09-2.675-0.281
	c-0.81-0.186-1.598-0.467-2.362-0.86c-0.757-0.393-1.519-0.859-2.267-1.443c-0.74-0.568-1.518-1.247-2.317-2.017v15.716
	c0,0.25-0.071,0.483-0.223,0.675c-0.146,0.201-0.4,0.371-0.772,0.509c-0.353,0.139-0.836,0.244-1.438,0.319
	c-0.594,0.068-1.358,0.116-2.285,0.116c-0.923,0-1.672-0.048-2.283-0.116c-0.592-0.075-1.08-0.181-1.428-0.319
	c-0.377-0.138-0.626-0.308-0.772-0.509c-0.159-0.191-0.233-0.425-0.233-0.675v-46.629c0-0.255,0.069-0.473,0.188-0.658
	c0.127-0.191,0.343-0.34,0.658-0.468c0.316-0.127,0.725-0.223,1.229-0.281c0.523-0.069,1.163-0.101,1.94-0.101
	c0.746,0,1.369,0.031,1.887,0.101c0.504,0.059,0.918,0.154,1.239,0.281c0.306,0.128,0.521,0.276,0.653,0.468
	c0.119,0.186,0.183,0.403,0.183,0.658v3.928c0.974-0.998,1.924-1.879,2.858-2.639c0.942-0.759,1.893-1.396,2.872-1.916
	c0.966-0.499,1.977-0.892,3.004-1.136c1.046-0.244,2.147-0.372,3.317-0.372c2.444,0,4.533,0.483,6.245,1.439
	c1.728,0.96,3.124,2.276,4.217,3.943c1.088,1.678,1.876,3.62,2.37,5.839C327.447,803.369,327.7,805.736,327.7,808.258
	 M317.894,808.932c0-1.423-0.109-2.792-0.321-4.098c-0.212-1.316-0.57-2.484-1.085-3.504c-0.512-1.019-1.186-1.842-2.022-2.452
	c-0.834-0.615-1.877-0.913-3.132-0.913c-0.608,0-1.239,0.096-1.837,0.276c-0.621,0.191-1.244,0.499-1.876,0.924
	c-0.64,0.425-1.293,0.972-1.972,1.64c-0.669,0.68-1.375,1.514-2.132,2.511v10.998c1.327,1.678,2.583,2.973,3.782,3.886
	c1.197,0.902,2.441,1.358,3.742,1.358c1.226,0,2.267-0.308,3.129-0.935c0.865-0.626,1.566-1.433,2.115-2.451
	c0.544-1.009,0.95-2.145,1.213-3.43C317.764,811.474,317.894,810.205,317.894,808.932"/>
<path fill="#939598" d="M358.207,795.163c0,0.892-0.027,1.624-0.083,2.202c-0.048,0.568-0.125,1.024-0.223,1.349
	c-0.095,0.323-0.228,0.547-0.385,0.674c-0.17,0.128-0.374,0.181-0.626,0.181c-0.194,0-0.422-0.043-0.674-0.127
	c-0.25-0.086-0.531-0.181-0.841-0.281c-0.321-0.091-0.658-0.191-1.027-0.282c-0.379-0.085-0.783-0.127-1.234-0.127
	c-0.523,0-1.053,0.106-1.577,0.318c-0.52,0.212-1.069,0.542-1.635,0.987c-0.555,0.451-1.136,1.051-1.757,1.799
	c-0.603,0.749-1.266,1.673-1.956,2.771v20.807c0,0.255-0.071,0.467-0.223,0.658c-0.151,0.186-0.414,0.334-0.777,0.467
	c-0.364,0.122-0.831,0.218-1.436,0.276c-0.603,0.069-1.359,0.101-2.288,0.101c-0.918,0-1.686-0.031-2.272-0.101
	c-0.613-0.059-1.08-0.154-1.457-0.276c-0.353-0.133-0.608-0.281-0.759-0.467c-0.153-0.191-0.223-0.403-0.223-0.658v-33.381
	c0-0.255,0.059-0.468,0.183-0.658c0.125-0.186,0.348-0.34,0.674-0.468c0.326-0.122,0.746-0.223,1.25-0.275
	c0.518-0.069,1.162-0.101,1.94-0.101c0.783,0,1.452,0.031,1.975,0.101c0.531,0.053,0.929,0.153,1.223,0.275
	c0.281,0.128,0.494,0.282,0.613,0.468c0.13,0.19,0.191,0.403,0.191,0.658v4.15c0.867-1.242,1.701-2.277,2.46-3.089
	c0.783-0.808,1.523-1.454,2.213-1.933c0.701-0.467,1.401-0.801,2.096-0.977c0.698-0.201,1.399-0.287,2.094-0.287
	c0.332,0,0.679,0.012,1.048,0.054c0.377,0.032,0.767,0.101,1.157,0.191c0.409,0.085,0.751,0.181,1.056,0.297
	c0.297,0.111,0.515,0.233,0.653,0.351c0.136,0.127,0.244,0.266,0.292,0.414c0.066,0.148,0.125,0.36,0.181,0.615
	c0.042,0.266,0.085,0.658,0.108,1.184C358.186,793.549,358.207,794.25,358.207,795.163"/>
<path fill="#939598" d="M375.681,780.746c0,1.896-0.385,3.206-1.163,3.934c-0.767,0.722-2.208,1.077-4.305,1.077
	c-2.115,0-3.548-0.345-4.288-1.046c-0.728-0.695-1.099-1.958-1.099-3.773c0-1.895,0.377-3.217,1.146-3.954
	c0.751-0.738,2.203-1.104,4.323-1.104c2.086,0,3.517,0.355,4.27,1.067C375.306,777.657,375.681,778.921,375.681,780.746
	 M374.969,825.434c0,0.255-0.077,0.467-0.223,0.664c-0.146,0.18-0.403,0.339-0.772,0.461c-0.358,0.122-0.841,0.223-1.436,0.276
	c-0.607,0.069-1.354,0.101-2.293,0.101c-0.913,0-1.68-0.031-2.271-0.101c-0.598-0.054-1.081-0.154-1.447-0.276
	c-0.358-0.122-0.619-0.281-0.764-0.461c-0.148-0.197-0.218-0.409-0.218-0.664v-33.307c0-0.255,0.069-0.467,0.218-0.658
	c0.146-0.186,0.406-0.34,0.764-0.488c0.366-0.133,0.849-0.244,1.447-0.318c0.592-0.074,1.358-0.111,2.271-0.111
	c0.939,0,1.686,0.037,2.293,0.111c0.595,0.074,1.077,0.186,1.436,0.318c0.369,0.148,0.626,0.303,0.772,0.488
	c0.146,0.191,0.223,0.403,0.223,0.658V825.434z"/>
<path fill="#939598" d="M409.396,816.002c0,1.9-0.353,3.572-1.059,5.021c-0.714,1.444-1.725,2.654-3.012,3.631
	c-1.301,0.966-2.837,1.698-4.61,2.182c-1.775,0.493-3.684,0.737-5.756,0.737c-1.26,0-2.439-0.095-3.575-0.286
	c-1.136-0.181-2.152-0.425-3.055-0.706c-0.902-0.292-1.648-0.589-2.245-0.881c-0.598-0.303-1.032-0.579-1.316-0.844
	c-0.266-0.255-0.483-0.669-0.629-1.237c-0.159-0.558-0.223-1.386-0.223-2.483c0-0.728,0.016-1.307,0.064-1.747
	c0.05-0.435,0.132-0.785,0.228-1.051c0.104-0.255,0.223-0.425,0.382-0.521c0.146-0.084,0.326-0.127,0.56-0.127
	c0.276,0,0.68,0.159,1.218,0.467c0.531,0.313,1.2,0.658,1.993,1.03c0.804,0.377,1.728,0.722,2.8,1.046
	c1.048,0.323,2.266,0.488,3.609,0.488c0.841,0,1.603-0.091,2.261-0.261c0.658-0.175,1.229-0.43,1.712-0.753
	c0.499-0.324,0.857-0.733,1.114-1.232c0.255-0.498,0.369-1.072,0.369-1.72c0-0.753-0.228-1.391-0.69-1.932
	c-0.461-0.53-1.072-1.009-1.832-1.401c-0.767-0.403-1.626-0.775-2.587-1.125c-0.964-0.351-1.94-0.732-2.951-1.168
	c-1.006-0.414-1.996-0.896-2.957-1.454c-0.969-0.542-1.834-1.222-2.582-2.018c-0.767-0.802-1.369-1.762-1.831-2.876
	c-0.467-1.126-0.695-2.475-0.695-4.051c0-1.592,0.302-3.063,0.939-4.4c0.607-1.326,1.51-2.473,2.696-3.418
	c1.162-0.95,2.598-1.688,4.289-2.208c1.672-0.521,3.559-0.786,5.664-0.786c1.043,0,2.065,0.075,3.042,0.219
	c0.985,0.153,1.881,0.345,2.686,0.567c0.788,0.223,1.467,0.467,2.017,0.722c0.55,0.271,0.939,0.494,1.179,0.68
	c0.238,0.191,0.408,0.371,0.512,0.563c0.093,0.191,0.162,0.408,0.218,0.68c0.048,0.255,0.093,0.578,0.13,0.966
	c0.037,0.382,0.059,0.87,0.059,1.444c0,0.668-0.021,1.221-0.059,1.64c-0.037,0.43-0.108,0.77-0.196,1.014
	c-0.074,0.255-0.196,0.425-0.348,0.505c-0.146,0.09-0.326,0.132-0.52,0.132c-0.223,0-0.565-0.132-1.045-0.393
	c-0.478-0.266-1.07-0.541-1.781-0.839c-0.714-0.308-1.539-0.584-2.468-0.838c-0.942-0.271-2.012-0.404-3.204-0.404
	c-0.852,0-1.579,0.091-2.216,0.266c-0.621,0.17-1.13,0.425-1.529,0.748c-0.396,0.324-0.706,0.707-0.889,1.142
	c-0.212,0.436-0.305,0.902-0.305,1.412c0,0.765,0.233,1.412,0.711,1.942c0.472,0.521,1.099,0.977,1.866,1.381
	c0.783,0.402,1.656,0.774,2.635,1.119c0.99,0.355,1.988,0.732,2.999,1.146c1.011,0.409,2.012,0.887,3.001,1.438
	c0.984,0.552,1.853,1.221,2.63,2.022c0.778,0.802,1.396,1.757,1.866,2.861C409.163,813.167,409.396,814.483,409.396,816.002"/>
<path fill="#939598" d="M448.847,807.764c0,1.146-0.252,1.996-0.767,2.553c-0.518,0.547-1.218,0.823-2.115,0.823h-20.321
	c0,1.423,0.167,2.718,0.499,3.874c0.348,1.158,0.881,2.14,1.613,2.951c0.741,0.818,1.68,1.439,2.843,1.858
	c1.165,0.425,2.561,0.637,4.18,0.637c1.643,0,3.089-0.122,4.345-0.355c1.239-0.239,2.314-0.499,3.227-0.791
	c0.908-0.286,1.674-0.547,2.266-0.785c0.603-0.233,1.088-0.361,1.457-0.361c0.234,0,0.414,0.043,0.561,0.138
	c0.156,0.086,0.276,0.239,0.379,0.468c0.099,0.228,0.176,0.541,0.207,0.955c0.032,0.414,0.062,0.935,0.062,1.55
	c0,0.553-0.011,1.02-0.04,1.401c-0.026,0.393-0.063,0.722-0.119,0.998c-0.048,0.276-0.114,0.504-0.223,0.695
	c-0.098,0.186-0.234,0.366-0.385,0.536c-0.165,0.181-0.603,0.419-1.333,0.711c-0.727,0.298-1.64,0.595-2.771,0.881
	c-1.12,0.287-2.404,0.531-3.854,0.744c-1.446,0.223-2.991,0.323-4.642,0.323c-2.976,0-5.573-0.377-7.8-1.125
	c-2.24-0.749-4.104-1.885-5.595-3.402c-1.51-1.519-2.625-3.445-3.352-5.765c-0.741-2.325-1.099-5.031-1.099-8.164
	c0-2.961,0.379-5.637,1.146-8.025c0.778-2.377,1.903-4.405,3.375-6.062c1.468-1.661,3.268-2.93,5.369-3.8
	c2.1-0.871,4.485-1.307,7.126-1.307c2.8,0,5.186,0.404,7.182,1.227c1.972,0.834,3.609,1.97,4.875,3.435
	c1.271,1.46,2.206,3.185,2.811,5.181c0.597,2.001,0.892,4.172,0.892,6.513V807.764z M439.715,805.078
	c0.077-2.648-0.457-4.725-1.587-6.237c-1.136-1.502-2.888-2.261-5.269-2.261c-1.188,0-2.237,0.223-3.118,0.669
	c-0.881,0.451-1.627,1.056-2.208,1.82c-0.587,0.754-1.032,1.656-1.343,2.691c-0.318,1.034-0.499,2.139-0.547,3.317H439.715z"/>
<path fill="#939598" d="M481.631,816.002c0,1.9-0.342,3.572-1.059,5.021c-0.714,1.444-1.717,2.654-3.012,3.631
	c-1.303,0.966-2.837,1.698-4.615,2.182c-1.77,0.493-3.678,0.737-5.754,0.737c-1.252,0-2.447-0.095-3.578-0.286
	c-1.136-0.181-2.152-0.425-3.044-0.706c-0.907-0.292-1.659-0.589-2.256-0.881c-0.597-0.303-1.027-0.579-1.303-0.844
	c-0.279-0.255-0.491-0.669-0.632-1.237c-0.157-0.558-0.229-1.386-0.229-2.483c0-0.728,0.011-1.307,0.072-1.747
	c0.048-0.435,0.125-0.785,0.228-1.051c0.091-0.255,0.218-0.425,0.375-0.521c0.146-0.084,0.337-0.127,0.549-0.127
	c0.287,0,0.69,0.159,1.229,0.467c0.526,0.313,1.194,0.658,1.993,1.03c0.794,0.377,1.73,0.722,2.79,1.046
	c1.064,0.323,2.266,0.488,3.615,0.488c0.847,0,1.608-0.091,2.267-0.261c0.663-0.175,1.234-0.43,1.722-0.753
	c0.488-0.324,0.854-0.733,1.099-1.232c0.255-0.498,0.375-1.072,0.375-1.72c0-0.753-0.229-1.391-0.685-1.932
	c-0.468-0.53-1.083-1.009-1.842-1.401c-0.761-0.403-1.622-0.775-2.587-1.125c-0.958-0.351-1.935-0.732-2.951-1.168
	c-1.011-0.414-1.996-0.896-2.957-1.454c-0.963-0.542-1.821-1.222-2.577-2.018c-0.767-0.802-1.38-1.762-1.842-2.876
	c-0.457-1.126-0.685-2.475-0.685-4.051c0-1.592,0.302-3.063,0.939-4.4c0.613-1.326,1.515-2.473,2.686-3.418
	c1.173-0.95,2.598-1.688,4.289-2.208c1.683-0.521,3.575-0.786,5.674-0.786c1.048,0,2.064,0.075,3.044,0.219
	c0.982,0.153,1.884,0.345,2.672,0.567c0.799,0.223,1.473,0.467,2.028,0.722c0.544,0.271,0.929,0.494,1.173,0.68
	c0.233,0.191,0.414,0.371,0.507,0.563c0.104,0.191,0.173,0.408,0.229,0.68c0.048,0.255,0.098,0.578,0.13,0.966
	c0.032,0.382,0.056,0.87,0.056,1.444c0,0.668-0.024,1.221-0.056,1.64c-0.032,0.43-0.098,0.77-0.191,1.014
	c-0.085,0.255-0.204,0.425-0.342,0.505c-0.151,0.09-0.337,0.132-0.542,0.132c-0.223,0-0.565-0.132-1.04-0.393
	c-0.478-0.266-1.059-0.541-1.775-0.839c-0.709-0.308-1.539-0.584-2.468-0.838c-0.939-0.271-2.017-0.404-3.195-0.404
	c-0.86,0-1.587,0.091-2.219,0.266c-0.619,0.17-1.136,0.425-1.54,0.748c-0.4,0.324-0.695,0.707-0.894,1.142
	c-0.202,0.436-0.3,0.902-0.3,1.412c0,0.765,0.239,1.412,0.706,1.942c0.478,0.521,1.109,0.977,1.876,1.381
	c0.783,0.402,1.656,0.774,2.641,1.119c0.989,0.355,1.985,0.732,2.996,1.146c1.003,0.409,2.004,0.887,2.988,1.438
	s1.874,1.221,2.635,2.022c0.783,0.802,1.409,1.757,1.881,2.861C481.397,813.167,481.631,814.483,481.631,816.002"/>
<path fill="#939598" d="M542.828,792.986c0,2.718-0.43,5.117-1.276,7.225c-0.849,2.096-2.083,3.858-3.702,5.291
	c-1.613,1.434-3.615,2.527-5.974,3.281c-2.354,0.748-5.125,1.119-8.326,1.119h-4.044v15.463c0,0.254-0.077,0.467-0.234,0.668
	c-0.17,0.196-0.44,0.361-0.809,0.488c-0.372,0.128-0.881,0.223-1.495,0.298c-0.626,0.079-1.425,0.116-2.404,0.116
	c-0.945,0-1.739-0.037-2.37-0.116c-0.634-0.075-1.146-0.17-1.51-0.298c-0.379-0.127-0.642-0.292-0.788-0.488
	c-0.151-0.201-0.228-0.414-0.228-0.668v-43.567c0-1.179,0.305-2.06,0.913-2.639c0.608-0.589,1.425-0.881,2.407-0.881h11.425
	c1.141,0,2.235,0.037,3.272,0.122c1.032,0.096,2.277,0.281,3.729,0.573c1.446,0.286,2.908,0.807,4.402,1.582
	c1.479,0.774,2.744,1.757,3.793,2.94c1.056,1.189,1.85,2.568,2.394,4.15C542.55,789.239,542.828,791.012,542.828,792.986
	 M532.539,793.697c0-1.698-0.311-3.089-0.902-4.192c-0.597-1.099-1.338-1.911-2.211-2.437c-0.87-0.515-1.789-0.844-2.741-0.992
	c-0.966-0.133-1.956-0.202-2.983-0.202h-4.195v16.433h4.418c1.577,0,2.879-0.212,3.952-0.637c1.064-0.424,1.93-1.019,2.593-1.783
	c0.685-0.754,1.189-1.666,1.537-2.729C532.364,796.097,532.539,794.945,532.539,793.697"/>
<path fill="#939598" d="M582.165,792.01c0,0.127-0.011,0.281-0.021,0.457c-0.011,0.17-0.042,0.36-0.079,0.572
	c-0.032,0.224-0.08,0.457-0.154,0.732c-0.059,0.276-0.138,0.59-0.233,0.935l-10.032,30.202c-0.127,0.425-0.297,0.765-0.498,1.029
	c-0.213,0.266-0.563,0.468-1.057,0.616c-0.488,0.153-1.152,0.255-1.98,0.308c-0.838,0.048-1.926,0.074-3.274,0.074
	c-1.327,0-2.404-0.031-3.243-0.096c-0.828-0.063-1.491-0.17-1.959-0.318c-0.473-0.148-0.822-0.35-1.024-0.615
	c-0.223-0.266-0.393-0.595-0.515-0.998l-10.026-30.202c-0.159-0.499-0.276-0.944-0.361-1.348c-0.079-0.403-0.138-0.69-0.148-0.86
	c-0.011-0.181-0.021-0.34-0.021-0.488c0-0.244,0.075-0.467,0.213-0.652c0.138-0.187,0.371-0.346,0.722-0.468
	c0.355-0.122,0.828-0.212,1.438-0.26c0.626-0.054,1.386-0.085,2.309-0.085c1.03,0,1.848,0.031,2.474,0.106
	c0.627,0.058,1.109,0.138,1.476,0.255c0.361,0.116,0.616,0.275,0.77,0.488c0.154,0.217,0.271,0.467,0.366,0.764l7.602,24.522
	l0.223,0.935l0.229-0.935l7.489-24.522c0.074-0.297,0.19-0.547,0.355-0.764c0.165-0.213,0.409-0.372,0.765-0.488
	c0.35-0.117,0.817-0.197,1.406-0.255c0.584-0.075,1.348-0.106,2.304-0.106c0.923,0,1.667,0.031,2.261,0.085
	c0.584,0.048,1.035,0.138,1.359,0.26c0.329,0.122,0.552,0.281,0.68,0.468C582.102,791.543,582.165,791.766,582.165,792.01"/>
<path fill="#939598" d="M609.373,822.148c0,1.093-0.068,1.938-0.212,2.516c-0.122,0.595-0.313,1.003-0.542,1.236
	c-0.217,0.239-0.552,0.451-0.986,0.643c-0.431,0.181-0.945,0.34-1.534,0.483c-0.589,0.132-1.227,0.244-1.905,0.323
	c-0.69,0.074-1.381,0.106-2.081,0.106c-1.874,0-3.493-0.233-4.862-0.712c-1.369-0.467-2.505-1.199-3.402-2.187
	c-0.896-0.987-1.571-2.229-1.996-3.726c-0.424-1.497-0.631-3.27-0.631-5.313v-17.107h-4.002c-0.468,0-0.834-0.297-1.089-0.881
	c-0.244-0.584-0.377-1.561-0.377-2.94c0-0.712,0.032-1.327,0.096-1.826c0.069-0.499,0.159-0.902,0.281-1.179
	c0.122-0.286,0.276-0.493,0.478-0.626c0.187-0.117,0.398-0.181,0.653-0.181h3.96v-7.452c0-0.244,0.063-0.473,0.201-0.674
	c0.144-0.197,0.393-0.366,0.754-0.505c0.355-0.132,0.85-0.233,1.46-0.297c0.61-0.059,1.364-0.096,2.261-0.096
	c0.924,0,1.693,0.037,2.304,0.096c0.616,0.063,1.099,0.165,1.438,0.297c0.345,0.139,0.6,0.308,0.754,0.505
	c0.148,0.201,0.229,0.43,0.229,0.674v7.452h7.261c0.244,0,0.467,0.063,0.653,0.181c0.18,0.133,0.34,0.34,0.467,0.626
	c0.117,0.276,0.218,0.68,0.275,1.179c0.074,0.499,0.096,1.114,0.096,1.826c0,1.38-0.122,2.356-0.371,2.94
	c-0.255,0.584-0.621,0.881-1.088,0.881h-7.293v15.68c0,1.825,0.275,3.19,0.854,4.103c0.573,0.908,1.592,1.37,3.067,1.37
	c0.51,0,0.945-0.048,1.349-0.133c0.403-0.091,0.753-0.191,1.066-0.303s0.579-0.207,0.791-0.303c0.207-0.085,0.398-0.127,0.579-0.127
	c0.153,0,0.291,0.042,0.435,0.127c0.133,0.096,0.239,0.266,0.313,0.525c0.074,0.266,0.144,0.621,0.201,1.067
	C609.352,820.874,609.373,821.442,609.373,822.148"/>
<path fill="#939598" d="M628.801,821.32c0,2.314-0.404,3.885-1.227,4.676c-0.802,0.802-2.262,1.205-4.357,1.205
	c-2.092,0-3.546-0.403-4.342-1.189c-0.797-0.785-1.2-2.276-1.2-4.469c0-2.341,0.409-3.917,1.221-4.713
	c0.808-0.802,2.282-1.2,4.39-1.2c2.086,0,3.52,0.393,4.315,1.179C628.396,817.594,628.801,819.091,628.801,821.32"/>
<path fill="#939598" d="M685.754,822.594c0,0.743-0.021,1.375-0.085,1.89c-0.063,0.51-0.159,0.935-0.271,1.264
	c-0.133,0.351-0.292,0.583-0.478,0.737c-0.191,0.144-0.409,0.223-0.653,0.223H662.07c-0.828,0-1.519-0.238-2.081-0.727
	s-0.844-1.285-0.844-2.378v-43.981c0-0.249,0.079-0.478,0.244-0.674s0.436-0.366,0.812-0.488c0.367-0.122,0.882-0.218,1.503-0.292
	c0.642-0.074,1.428-0.117,2.388-0.117c0.972,0,1.768,0.043,2.395,0.117c0.626,0.074,1.125,0.17,1.497,0.292
	c0.371,0.122,0.642,0.292,0.796,0.488c0.17,0.196,0.255,0.425,0.255,0.674v38.96h15.233c0.244,0,0.462,0.074,0.653,0.207
	c0.186,0.144,0.345,0.366,0.478,0.674c0.111,0.319,0.207,0.722,0.271,1.242C685.732,821.214,685.754,821.84,685.754,822.594"/>
<path fill="#939598" d="M710.839,822.148c0,1.093-0.074,1.938-0.212,2.516c-0.128,0.595-0.313,1.003-0.542,1.236
	c-0.223,0.239-0.552,0.451-0.992,0.643c-0.43,0.181-0.939,0.34-1.534,0.483c-0.584,0.132-1.221,0.244-1.91,0.323
	c-0.68,0.074-1.37,0.106-2.07,0.106c-1.874,0-3.498-0.233-4.862-0.712c-1.375-0.467-2.511-1.199-3.413-2.187
	c-0.892-0.987-1.561-2.229-1.99-3.726c-0.425-1.497-0.627-3.27-0.627-5.313v-17.107h-4.012c-0.479,0-0.823-0.297-1.078-0.881
	c-0.25-0.584-0.382-1.561-0.382-2.94c0-0.712,0.037-1.327,0.101-1.826c0.059-0.499,0.148-0.902,0.281-1.179
	c0.111-0.286,0.281-0.493,0.462-0.626c0.196-0.117,0.419-0.181,0.663-0.181h3.965v-7.452c0-0.244,0.064-0.473,0.202-0.674
	c0.148-0.197,0.393-0.366,0.743-0.505c0.366-0.132,0.85-0.233,1.465-0.297c0.615-0.059,1.369-0.096,2.267-0.096
	c0.918,0,1.683,0.037,2.298,0.096c0.616,0.063,1.094,0.165,1.444,0.297c0.351,0.139,0.6,0.308,0.753,0.505
	c0.149,0.201,0.219,0.43,0.219,0.674v7.452h7.266c0.25,0,0.468,0.063,0.653,0.181c0.186,0.133,0.345,0.34,0.472,0.626
	c0.117,0.276,0.219,0.68,0.276,1.179c0.063,0.499,0.096,1.114,0.096,1.826c0,1.38-0.122,2.356-0.372,2.94
	c-0.254,0.584-0.615,0.881-1.098,0.881h-7.293v15.68c0,1.825,0.286,3.19,0.854,4.103c0.579,0.908,1.604,1.37,3.074,1.37
	c0.504,0,0.949-0.048,1.348-0.133c0.403-0.091,0.759-0.191,1.078-0.303c0.302-0.111,0.563-0.207,0.785-0.303
	c0.201-0.085,0.393-0.127,0.568-0.127c0.153,0,0.297,0.042,0.435,0.127c0.144,0.096,0.249,0.266,0.313,0.525
	c0.074,0.266,0.154,0.621,0.212,1.067C710.807,820.874,710.839,821.442,710.839,822.148"/>
<path fill="#939598" d="M749.984,825.428c0,0.282-0.068,0.51-0.191,0.701c-0.121,0.181-0.334,0.34-0.631,0.467
	c-0.297,0.128-0.706,0.207-1.216,0.261c-0.515,0.058-1.142,0.079-1.895,0.079c-0.802,0-1.454-0.021-1.942-0.079
	c-0.5-0.054-0.902-0.133-1.222-0.261c-0.313-0.127-0.536-0.286-0.669-0.467c-0.138-0.191-0.212-0.419-0.212-0.701v-3.704
	c-1.714,1.857-3.519,3.291-5.403,4.31c-1.879,1.024-3.976,1.534-6.273,1.534c-2.549,0-4.703-0.493-6.455-1.47
	c-1.752-0.998-3.185-2.325-4.299-3.992c-1.126-1.678-1.916-3.62-2.41-5.859c-0.51-2.229-0.754-4.586-0.754-7.055
	c0-2.973,0.313-5.643,0.955-8.01c0.627-2.367,1.561-4.395,2.787-6.062c1.227-1.677,2.738-2.962,4.564-3.858
	c1.815-0.897,3.923-1.344,6.285-1.344c1.879,0,3.572,0.383,5.09,1.142c1.519,0.759,3.036,1.874,4.533,3.35v-18.084
	c0-0.249,0.063-0.468,0.201-0.669c0.148-0.201,0.388-0.366,0.754-0.504c0.361-0.139,0.839-0.244,1.438-0.318
	c0.6-0.08,1.354-0.117,2.282-0.117c0.924,0,1.683,0.037,2.277,0.117c0.615,0.074,1.083,0.18,1.434,0.318
	c0.345,0.138,0.594,0.303,0.742,0.504c0.149,0.201,0.229,0.42,0.229,0.669V825.428z M740.627,803.135
	c-1.349-1.698-2.633-2.998-3.875-3.9c-1.231-0.897-2.531-1.344-3.869-1.344c-1.227,0-2.288,0.298-3.169,0.913
	c-0.892,0.616-1.598,1.434-2.123,2.452c-0.542,1.03-0.945,2.166-1.2,3.424c-0.265,1.269-0.403,2.553-0.403,3.88
	c0,1.391,0.117,2.75,0.351,4.077c0.213,1.321,0.584,2.505,1.094,3.535c0.51,1.04,1.199,1.868,2.038,2.483
	c0.849,0.626,1.921,0.939,3.228,0.939c0.647,0,1.273-0.09,1.889-0.281c0.605-0.186,1.237-0.488,1.869-0.913
	c0.631-0.424,1.284-0.987,1.964-1.666c0.679-0.69,1.411-1.529,2.208-2.521V803.135z"/>
<path fill="#939598" d="M772.061,821.32c0,2.314-0.404,3.885-1.211,4.676c-0.817,0.802-2.266,1.205-4.352,1.205
	c-2.103,0-3.557-0.403-4.354-1.189c-0.796-0.785-1.188-2.276-1.188-4.469c0-2.341,0.393-3.917,1.216-4.713
	c0.812-0.802,2.271-1.2,4.395-1.2c2.075,0,3.498,0.393,4.3,1.179C771.667,817.594,772.061,819.091,772.061,821.32"/>
</svg>
