<?xml version="1.0" encoding="utf-8"?>
<!-- Generator: Adobe Illustrator 16.0.0, SVG Export Plug-In . SVG Version: 6.00 Build 0)  -->
<!DOCTYPE svg PUBLIC "-//W3C//DTD SVG 1.1 Basic//EN" "http://www.w3.org/Graphics/SVG/1.1/DTD/svg11-basic.dtd">
<svg version="1.1" baseProfile="basic" id="Layer_1"
	 xmlns="http://www.w3.org/2000/svg" xmlns:xlink="http://www.w3.org/1999/xlink" x="0px" y="0px" width="1080px" height="1080px"
	 viewBox="0 0 1080 1080" xml:space="preserve">
<polygon fill="#18A2DC" points="755.819,600.003 685.632,600.003 498.932,434.876 580.796,271.731 707.374,307.322 589.715,294.468 
	526.42,426.968 696.498,584.191 "/>
<polygon fill="#18A2DC" points="547.193,429.936 663.864,447.733 722.202,329.074 677.708,460.586 714.293,527.826 656.95,469.483 
	"/>
<polygon fill="#18A2DC" points="712.32,309.301 733.083,309.301 785.496,471.454 726.164,322.15 "/>
<polygon fill="#E71C3B" points="695.514,297.43 722.196,249.969 812.189,267.774 844.828,449.707 798.351,283.589 729.142,267.774 
	"/>
<polygon fill="#E71C3B" points="755.819,365.657 757.891,386.05 793.41,293.483 "/>
<polygon fill="#B3BB35" points="800.334,652.416 748.91,575.283 800.334,445.758 951.611,477.402 809.237,466.516 765.723,571.326 
	"/>
<polygon fill="#B3BB35" points="785.496,579.908 896.241,614.836 886.365,665.266 819.119,657.361 896.241,687.018 951.611,490.249 
	901.188,595.067 "/>
<polygon fill="#FFFFFF" points="147.184,740.409 128.287,740.409 128.287,606.182 169.992,606.182 212.342,673.293 212.342,606.182 
	231.243,606.182 231.243,740.409 209.737,740.409 147.184,642.663 "/>
<polygon fill="#FFFFFF" points="263.17,606.182 263.17,740.409 342.662,740.409 342.662,724.773 296.402,724.773 296.402,681.766 
	342.662,681.766 342.662,664.83 295.76,664.83 295.76,623.123 342.662,623.123 342.662,606.182 "/>
<polygon fill="#FFFFFF" points="370.688,606.182 370.688,740.409 450.188,740.409 450.188,724.773 403.921,724.773 403.921,681.766 
	450.188,681.766 450.188,664.83 403.273,664.83 403.273,623.123 450.188,623.123 450.188,606.182 "/>
<polygon fill="#FFFFFF" points="465.83,606.182 465.83,623.123 498.935,623.123 498.935,740.409 533.596,740.409 533.596,622.465 
	567.48,622.465 567.48,606.182 "/>
<polygon fill="#FFFFFF" points="587.026,606.182 620.914,606.182 620.914,664.178 662.61,664.178 662.61,606.182 695.514,606.182 
	695.514,740.409 662.61,740.409 662.61,682.418 620.914,682.418 620.914,740.409 587.026,740.409 "/>
<rect x="729.085" y="606.182" fill="#FFFFFF" width="33.229" height="134.232"/>
<path fill="#FFFFFF" d="M156.034,816.236c0,0.705-0.031,1.295-0.101,1.771c-0.052,0.472-0.143,0.86-0.259,1.15
	c-0.132,0.29-0.283,0.502-0.461,0.642c-0.182,0.124-0.384,0.197-0.606,0.197h-23.733c-0.805,0-1.479-0.238-2.03-0.715
	c-0.546-0.477-0.821-1.248-0.821-2.315v-41.199c0-1.067,0.275-1.844,0.821-2.315c0.552-0.472,1.225-0.71,2.03-0.71h23.591
	c0.223,0,0.409,0.058,0.578,0.177c0.171,0.119,0.319,0.336,0.44,0.642s0.223,0.694,0.277,1.166c0.063,0.477,0.093,1.082,0.093,1.807
	c0,0.689-0.031,1.254-0.093,1.735c-0.054,0.481-0.155,0.854-0.277,1.155c-0.122,0.29-0.269,0.508-0.44,0.637
	c-0.168,0.13-0.355,0.202-0.578,0.202h-16.881v11.544h14.286c0.223,0,0.425,0.057,0.606,0.197c0.168,0.129,0.339,0.347,0.45,0.621
	c0.122,0.279,0.218,0.658,0.27,1.129c0.07,0.472,0.096,1.052,0.096,1.74c0,0.71-0.026,1.29-0.096,1.746
	c-0.052,0.471-0.147,0.839-0.27,1.118c-0.111,0.285-0.282,0.481-0.45,0.601c-0.182,0.125-0.384,0.187-0.606,0.187h-14.286v13.331
	h17.023c0.223,0,0.425,0.063,0.606,0.197c0.178,0.135,0.329,0.352,0.461,0.643c0.116,0.289,0.207,0.673,0.259,1.149
	C156.003,814.932,156.034,815.532,156.034,816.236"/>
<path fill="#FFFFFF" d="M196.571,818.754c0,0.248-0.075,0.456-0.223,0.643c-0.137,0.176-0.388,0.331-0.732,0.455
	c-0.34,0.119-0.806,0.218-1.394,0.27c-0.611,0.067-1.336,0.094-2.217,0.094c-0.898,0-1.649-0.026-2.255-0.094
	c-0.587-0.052-1.059-0.15-1.398-0.27c-0.348-0.124-0.58-0.279-0.728-0.455c-0.148-0.187-0.223-0.395-0.223-0.643v-18.583
	c0-1.585-0.111-2.827-0.339-3.729c-0.238-0.901-0.572-1.673-1.007-2.32c-0.44-0.647-1.012-1.145-1.699-1.491
	c-0.699-0.363-1.504-0.539-2.434-0.539c-1.166,0-2.349,0.43-3.548,1.284c-1.181,0.85-2.429,2.087-3.716,3.719v21.659
	c0,0.248-0.075,0.456-0.217,0.643c-0.146,0.176-0.404,0.331-0.754,0.455c-0.354,0.119-0.823,0.218-1.406,0.27
	c-0.577,0.067-1.326,0.094-2.222,0.094c-0.906,0-1.649-0.026-2.232-0.094c-0.585-0.052-1.051-0.15-1.416-0.27
	c-0.345-0.124-0.593-0.279-0.744-0.455c-0.142-0.187-0.212-0.395-0.212-0.643v-32.576c0-0.244,0.06-0.456,0.182-0.643
	c0.116-0.176,0.334-0.326,0.657-0.456c0.313-0.114,0.726-0.207,1.22-0.27c0.498-0.062,1.124-0.093,1.888-0.093
	c0.774,0,1.421,0.031,1.924,0.093c0.521,0.063,0.909,0.155,1.199,0.27c0.277,0.13,0.484,0.28,0.596,0.456
	c0.127,0.187,0.184,0.398,0.184,0.643v3.76c1.8-1.938,3.633-3.402,5.495-4.382c1.862-0.969,3.804-1.46,5.824-1.46
	c2.222,0,4.094,0.362,5.612,1.098c1.515,0.73,2.745,1.719,3.68,2.973c0.948,1.259,1.619,2.725,2.036,4.402
	c0.414,1.678,0.621,3.703,0.621,6.06V818.754z"/>
<path fill="#FFFFFF" d="M225.673,815.543c0,1.072-0.075,1.896-0.202,2.465c-0.132,0.575-0.313,0.975-0.53,1.202
	c-0.228,0.228-0.536,0.435-0.964,0.621c-0.424,0.187-0.93,0.337-1.502,0.477c-0.567,0.135-1.188,0.238-1.861,0.311
	c-0.668,0.073-1.342,0.114-2.025,0.114c-1.82,0-3.405-0.238-4.741-0.694c-1.347-0.466-2.45-1.181-3.33-2.144
	c-0.865-0.964-1.523-2.17-1.938-3.636c-0.419-1.461-0.613-3.186-0.613-5.18v-16.687h-3.921c-0.456,0-0.806-0.296-1.043-0.86
	c-0.251-0.575-0.373-1.533-0.373-2.869c0-0.704,0.029-1.306,0.09-1.792c0.065-0.486,0.15-0.87,0.283-1.149
	c0.111-0.274,0.269-0.477,0.451-0.601c0.179-0.119,0.396-0.188,0.637-0.188h3.877v-7.271c0-0.237,0.057-0.455,0.188-0.652
	c0.146-0.191,0.384-0.357,0.733-0.486c0.359-0.135,0.833-0.238,1.427-0.301c0.598-0.052,1.331-0.093,2.211-0.093
	c0.901,0,1.644,0.041,2.243,0.093c0.605,0.063,1.066,0.166,1.411,0.301c0.339,0.129,0.588,0.295,0.738,0.486
	c0.142,0.197,0.207,0.415,0.207,0.652v7.271h7.09c0.244,0,0.456,0.068,0.643,0.188c0.179,0.124,0.321,0.326,0.456,0.601
	c0.117,0.279,0.212,0.663,0.27,1.149c0.059,0.486,0.09,1.088,0.09,1.792c0,1.336-0.116,2.294-0.36,2.869
	c-0.251,0.564-0.606,0.86-1.072,0.86h-7.116v15.299c0,1.771,0.279,3.107,0.836,3.998c0.567,0.881,1.564,1.336,2.996,1.336
	c0.495,0,0.93-0.041,1.321-0.135c0.383-0.082,0.732-0.176,1.041-0.289c0.3-0.114,0.557-0.202,0.769-0.291
	c0.194-0.088,0.392-0.129,0.557-0.129c0.153,0,0.29,0.041,0.422,0.129c0.145,0.089,0.246,0.249,0.308,0.508
	c0.075,0.26,0.15,0.602,0.208,1.047C225.642,814.3,225.673,814.859,225.673,815.543"/>
<path fill="#FFFFFF" d="M263.002,801.518c0,1.119-0.257,1.947-0.759,2.486c-0.5,0.533-1.189,0.797-2.064,0.797h-19.828
	c0,1.389,0.168,2.652,0.492,3.781s0.859,2.093,1.569,2.891c0.728,0.787,1.645,1.397,2.781,1.802c1.134,0.425,2.491,0.622,4.07,0.622
	c1.604,0,3.02-0.114,4.239-0.342c1.209-0.233,2.264-0.487,3.154-0.777c0.886-0.27,1.624-0.528,2.201-0.762
	c0.596-0.228,1.072-0.347,1.438-0.347c0.212,0,0.398,0.041,0.541,0.13c0.143,0.088,0.271,0.232,0.373,0.455
	c0.083,0.223,0.158,0.523,0.188,0.938c0.039,0.394,0.06,0.901,0.06,1.508c0,0.543-0.016,0.999-0.031,1.372
	c-0.034,0.378-0.07,0.694-0.111,0.968c-0.049,0.27-0.119,0.492-0.217,0.679c-0.102,0.177-0.23,0.353-0.389,0.519
	c-0.158,0.181-0.593,0.414-1.295,0.704c-0.709,0.279-1.601,0.575-2.703,0.859c-1.093,0.28-2.344,0.519-3.766,0.726
	c-1.411,0.207-2.918,0.311-4.519,0.311c-2.9,0-5.436-0.362-7.626-1.098c-2.175-0.726-3.993-1.834-5.446-3.32
	c-1.471-1.486-2.563-3.361-3.273-5.619c-0.723-2.269-1.077-4.92-1.077-7.966c0-2.9,0.383-5.511,1.124-7.836
	c0.764-2.325,1.856-4.293,3.294-5.92c1.432-1.615,3.177-2.849,5.236-3.708c2.061-0.839,4.384-1.273,6.958-1.273
	c2.729,0,5.058,0.403,7,1.201c1.929,0.813,3.522,1.922,4.762,3.346c1.246,1.43,2.152,3.107,2.742,5.06
	c0.578,1.953,0.881,4.065,0.881,6.355V801.518z M254.081,798.887c0.081-2.579-0.445-4.604-1.554-6.08
	c-1.098-1.471-2.81-2.207-5.127-2.207c-1.168,0-2.19,0.218-3.051,0.653c-0.864,0.44-1.579,1.025-2.146,1.776
	c-0.58,0.74-1.021,1.61-1.32,2.626c-0.309,1.005-0.479,2.092-0.531,3.231H254.081z"/>
<path fill="#FFFFFF" d="M292.971,789.212c0,0.876-0.016,1.596-0.075,2.155c-0.036,0.559-0.106,0.994-0.212,1.314
	c-0.094,0.312-0.229,0.539-0.381,0.658c-0.166,0.119-0.355,0.182-0.606,0.182c-0.188,0-0.406-0.042-0.655-0.13
	c-0.246-0.088-0.521-0.171-0.818-0.274c-0.303-0.094-0.642-0.187-1.007-0.27c-0.36-0.093-0.769-0.129-1.204-0.129
	c-0.516,0-1.023,0.108-1.538,0.305c-0.508,0.208-1.039,0.534-1.58,0.964c-0.551,0.445-1.129,1.025-1.725,1.761
	c-0.593,0.73-1.235,1.632-1.919,2.703v20.303c0,0.248-0.075,0.456-0.217,0.643c-0.137,0.176-0.394,0.331-0.749,0.455
	c-0.35,0.125-0.826,0.207-1.406,0.27c-0.587,0.063-1.325,0.094-2.222,0.094c-0.906,0-1.642-0.031-2.232-0.094
	c-0.578-0.063-1.054-0.145-1.406-0.27c-0.355-0.124-0.603-0.279-0.746-0.455c-0.15-0.187-0.218-0.395-0.218-0.643v-32.576
	c0-0.238,0.057-0.456,0.174-0.643c0.127-0.176,0.35-0.326,0.668-0.456c0.308-0.114,0.723-0.207,1.225-0.27
	c0.489-0.062,1.116-0.093,1.872-0.093c0.78,0,1.417,0.031,1.938,0.093c0.507,0.063,0.911,0.155,1.188,0.27
	c0.274,0.13,0.481,0.28,0.604,0.456c0.111,0.187,0.181,0.404,0.181,0.643v4.05c0.847-1.212,1.655-2.217,2.408-3.009
	c0.756-0.793,1.473-1.425,2.157-1.881c0.684-0.455,1.352-0.787,2.043-0.963c0.689-0.187,1.357-0.274,2.046-0.274
	c0.319,0,0.658,0.01,1.023,0.046c0.373,0.042,0.743,0.104,1.137,0.192c0.381,0.077,0.725,0.176,1.018,0.284
	c0.285,0.114,0.502,0.229,0.643,0.348c0.137,0.129,0.228,0.259,0.285,0.398c0.065,0.155,0.127,0.353,0.171,0.611
	c0.046,0.248,0.085,0.643,0.106,1.149C292.966,787.643,292.971,788.326,292.971,789.212"/>
<path fill="#FFFFFF" d="M332.931,801.994c0,2.891-0.309,5.5-0.93,7.831c-0.625,2.32-1.533,4.309-2.725,5.936
	c-1.193,1.636-2.675,2.89-4.462,3.76c-1.771,0.88-3.801,1.315-6.093,1.315c-0.956,0-1.818-0.094-2.61-0.279
	c-0.79-0.177-1.559-0.456-2.305-0.834c-0.738-0.384-1.481-0.845-2.212-1.404c-0.723-0.559-1.481-1.222-2.261-1.978v15.341
	c0,0.243-0.07,0.466-0.217,0.657c-0.143,0.191-0.391,0.357-0.753,0.497c-0.345,0.13-0.816,0.233-1.404,0.306
	c-0.58,0.072-1.326,0.114-2.229,0.114c-0.901,0-1.631-0.042-2.227-0.114c-0.577-0.072-1.054-0.176-1.394-0.306
	c-0.367-0.14-0.611-0.306-0.753-0.497c-0.156-0.191-0.229-0.414-0.229-0.657v-45.499c0-0.249,0.067-0.461,0.184-0.647
	c0.125-0.176,0.334-0.332,0.642-0.456c0.309-0.114,0.707-0.212,1.199-0.27c0.51-0.062,1.134-0.093,1.893-0.093
	c0.728,0,1.336,0.031,1.841,0.093c0.492,0.058,0.896,0.155,1.209,0.27c0.298,0.124,0.508,0.28,0.637,0.456
	c0.117,0.187,0.179,0.398,0.179,0.647v3.827c0.95-0.969,1.877-1.828,2.792-2.568c0.917-0.746,1.844-1.368,2.799-1.865
	c0.943-0.497,1.929-0.87,2.931-1.118c1.021-0.238,2.095-0.362,3.237-0.362c2.385,0,4.423,0.477,6.093,1.408
	c1.686,0.932,3.048,2.222,4.115,3.854c1.062,1.626,1.831,3.532,2.313,5.691C332.685,797.225,332.931,799.529,332.931,801.994
	 M323.362,802.646c0-1.388-0.106-2.724-0.313-3.998c-0.208-1.284-0.557-2.413-1.06-3.413c-0.5-0.999-1.157-1.797-1.973-2.393
	c-0.813-0.596-1.831-0.896-3.056-0.896c-0.593,0-1.209,0.093-1.792,0.279c-0.606,0.176-1.214,0.477-1.831,0.891
	c-0.624,0.414-1.262,0.953-1.924,1.605c-0.653,0.663-1.341,1.481-2.08,2.444v10.742c1.295,1.626,2.52,2.89,3.693,3.78
	c1.166,0.891,2.38,1.336,3.649,1.336c1.196,0,2.211-0.311,3.053-0.922c0.845-0.611,1.528-1.398,2.064-2.393
	c0.531-0.984,0.927-2.092,1.184-3.335C323.235,805.133,323.362,803.89,323.362,802.646"/>
<path fill="#FFFFFF" d="M362.697,789.212c0,0.876-0.026,1.596-0.08,2.155c-0.047,0.559-0.122,0.994-0.218,1.314
	c-0.096,0.312-0.223,0.539-0.375,0.658c-0.166,0.119-0.368,0.182-0.611,0.182c-0.189,0-0.412-0.042-0.658-0.13
	c-0.243-0.088-0.518-0.171-0.82-0.274c-0.313-0.094-0.643-0.187-1.002-0.27c-0.373-0.093-0.764-0.129-1.204-0.129
	c-0.51,0-1.028,0.108-1.539,0.305c-0.51,0.208-1.043,0.534-1.595,0.964c-0.541,0.445-1.108,1.025-1.714,1.761
	c-0.588,0.73-1.235,1.632-1.909,2.703v20.303c0,0.248-0.07,0.456-0.217,0.643c-0.15,0.176-0.404,0.331-0.759,0.455
	c-0.355,0.125-0.811,0.207-1.401,0.27c-0.588,0.063-1.326,0.094-2.232,0.094c-0.896,0-1.645-0.031-2.217-0.094
	c-0.598-0.063-1.057-0.145-1.421-0.27c-0.344-0.124-0.593-0.279-0.743-0.455c-0.148-0.187-0.217-0.395-0.217-0.643v-32.576
	c0-0.238,0.06-0.456,0.181-0.643c0.122-0.176,0.34-0.326,0.658-0.456c0.318-0.114,0.728-0.207,1.22-0.27
	c0.505-0.062,1.134-0.093,1.893-0.093c0.764,0,1.417,0.031,1.927,0.093c0.518,0.063,0.906,0.155,1.191,0.27
	c0.277,0.13,0.484,0.28,0.601,0.456c0.127,0.187,0.187,0.404,0.187,0.643v4.05c0.847-1.212,1.66-2.217,2.4-3.009
	c0.764-0.793,1.486-1.425,2.16-1.881c0.684-0.455,1.367-0.787,2.045-0.963c0.678-0.187,1.365-0.274,2.043-0.274
	c0.323,0,0.663,0.01,1.022,0.046c0.365,0.042,0.749,0.104,1.129,0.192c0.399,0.077,0.733,0.176,1.031,0.284
	c0.29,0.114,0.502,0.229,0.634,0.348c0.135,0.129,0.241,0.259,0.288,0.398c0.064,0.155,0.121,0.353,0.176,0.611
	c0.042,0.248,0.083,0.643,0.106,1.149C362.677,787.643,362.697,788.326,362.697,789.212"/>
<path fill="#FFFFFF" d="M379.747,775.146c0,1.854-0.375,3.139-1.134,3.843c-0.749,0.705-2.155,1.057-4.2,1.057
	c-2.064,0-3.462-0.342-4.185-1.025c-0.709-0.684-1.072-1.911-1.072-3.688c0-1.844,0.368-3.133,1.119-3.854
	c0.733-0.715,2.149-1.077,4.219-1.077c2.035,0,3.431,0.342,4.166,1.046C379.382,772.131,379.747,773.374,379.747,775.146
	 M379.053,818.754c0,0.248-0.075,0.456-0.217,0.643c-0.143,0.176-0.394,0.331-0.754,0.455c-0.35,0.119-0.821,0.218-1.401,0.27
	c-0.593,0.067-1.318,0.094-2.238,0.094c-0.891,0-1.639-0.026-2.216-0.094c-0.583-0.052-1.054-0.15-1.412-0.27
	c-0.35-0.124-0.603-0.279-0.746-0.455c-0.145-0.187-0.212-0.395-0.212-0.643V786.25c0-0.238,0.067-0.456,0.212-0.643
	c0.143-0.176,0.396-0.331,0.746-0.466c0.357-0.135,0.829-0.238,1.412-0.316c0.578-0.077,1.326-0.108,2.216-0.108
	c0.92,0,1.645,0.031,2.238,0.108c0.58,0.078,1.051,0.182,1.401,0.316c0.36,0.135,0.611,0.29,0.754,0.466
	c0.142,0.187,0.217,0.404,0.217,0.643V818.754z"/>
<path fill="#FFFFFF" d="M412.645,809.551c0,1.849-0.344,3.485-1.033,4.895c-0.697,1.408-1.683,2.594-2.939,3.542
	c-1.267,0.953-2.769,1.663-4.498,2.134c-1.732,0.477-3.595,0.715-5.617,0.715c-1.23,0-2.38-0.094-3.488-0.274
	c-1.108-0.182-2.1-0.414-2.98-0.688c-0.88-0.28-1.608-0.575-2.19-0.86c-0.583-0.3-1.008-0.569-1.285-0.823
	c-0.259-0.254-0.471-0.658-0.614-1.207c-0.153-0.549-0.218-1.356-0.218-2.424c0-0.704,0.016-1.273,0.065-1.703
	c0.046-0.426,0.127-0.762,0.223-1.021c0.098-0.249,0.217-0.425,0.37-0.513c0.143-0.088,0.318-0.13,0.546-0.13
	c0.27,0,0.663,0.155,1.189,0.456c0.518,0.311,1.17,0.642,1.945,1.004c0.785,0.373,1.686,0.715,2.732,1.026
	c1.023,0.311,2.211,0.476,3.522,0.476c0.821,0,1.564-0.082,2.206-0.258c0.643-0.166,1.199-0.415,1.67-0.726
	c0.487-0.321,0.836-0.726,1.087-1.207c0.249-0.486,0.36-1.051,0.36-1.683c0-0.73-0.223-1.357-0.674-1.881
	c-0.45-0.522-1.046-0.979-1.786-1.372c-0.749-0.389-1.588-0.746-2.525-1.098c-0.939-0.337-1.893-0.715-2.879-1.13
	c-0.981-0.414-1.947-0.88-2.885-1.424c-0.945-0.533-1.787-1.196-2.52-1.973c-0.748-0.777-1.336-1.72-1.786-2.808
	c-0.456-1.098-0.679-2.413-0.679-3.946c0-1.554,0.295-2.988,0.917-4.289c0.593-1.305,1.473-2.413,2.631-3.346
	c1.134-0.922,2.535-1.646,4.185-2.154c1.631-0.507,3.473-0.761,5.526-0.761c1.018,0,2.015,0.067,2.967,0.212
	c0.96,0.146,1.836,0.332,2.621,0.549c0.77,0.218,1.432,0.456,1.968,0.715c0.536,0.26,0.917,0.477,1.15,0.652
	c0.235,0.188,0.398,0.373,0.5,0.555c0.091,0.187,0.158,0.398,0.212,0.658c0.047,0.248,0.091,0.569,0.127,0.952
	c0.036,0.368,0.06,0.839,0.06,1.398c0,0.653-0.023,1.196-0.06,1.605c-0.036,0.42-0.106,0.746-0.191,0.995
	c-0.073,0.238-0.189,0.403-0.34,0.486c-0.142,0.088-0.318,0.124-0.507,0.124c-0.217,0-0.551-0.124-1.02-0.372
	c-0.466-0.26-1.044-0.539-1.738-0.824c-0.697-0.295-1.502-0.574-2.408-0.823c-0.919-0.259-1.963-0.384-3.123-0.384
	c-0.834,0-1.543,0.084-2.165,0.26c-0.606,0.166-1.104,0.404-1.492,0.725c-0.386,0.321-0.688,0.689-0.867,1.113
	c-0.207,0.42-0.298,0.881-0.298,1.373c0,0.756,0.228,1.388,0.694,1.896c0.461,0.513,1.072,0.958,1.82,1.347
	c0.764,0.394,1.616,0.756,2.571,1.098c0.966,0.342,1.939,0.715,2.926,1.119c0.987,0.394,1.963,0.859,2.929,1.403
	c0.96,0.544,1.807,1.196,2.566,1.974c0.759,0.776,1.365,1.709,1.821,2.786C412.417,806.779,412.645,808.064,412.645,809.551"/>
<path fill="#FFFFFF" d="M451.139,801.518c0,1.119-0.246,1.947-0.748,2.486c-0.505,0.533-1.188,0.797-2.064,0.797h-19.829
	c0,1.389,0.163,2.652,0.487,3.781c0.339,1.129,0.859,2.093,1.574,2.891c0.723,0.787,1.639,1.397,2.773,1.802
	c1.137,0.425,2.499,0.622,4.079,0.622c1.603,0,3.014-0.114,4.239-0.342c1.21-0.233,2.258-0.487,3.149-0.777
	c0.886-0.27,1.634-0.528,2.211-0.762c0.591-0.228,1.062-0.347,1.422-0.347c0.228,0,0.404,0.041,0.547,0.13
	c0.152,0.088,0.269,0.232,0.37,0.455c0.096,0.223,0.171,0.523,0.202,0.938c0.031,0.394,0.06,0.901,0.06,1.508
	c0,0.543-0.011,0.999-0.039,1.372c-0.026,0.378-0.063,0.694-0.117,0.968c-0.046,0.27-0.111,0.492-0.217,0.679
	c-0.096,0.177-0.228,0.353-0.376,0.519c-0.158,0.181-0.587,0.414-1.3,0.704c-0.709,0.279-1.6,0.575-2.703,0.859
	c-1.093,0.28-2.347,0.519-3.76,0.726c-1.412,0.207-2.918,0.311-4.529,0.311c-2.903,0-5.436-0.362-7.611-1.098
	c-2.186-0.726-4.003-1.834-5.458-3.32c-1.474-1.486-2.561-3.361-3.271-5.619c-0.722-2.269-1.072-4.92-1.072-7.966
	c0-2.9,0.371-5.511,1.119-7.836c0.759-2.325,1.856-4.293,3.294-5.92c1.432-1.615,3.188-2.849,5.239-3.708
	c2.048-0.839,4.376-1.273,6.953-1.273c2.732,0,5.061,0.403,7.008,1.201c1.924,0.813,3.521,1.922,4.757,3.346
	c1.24,1.43,2.152,3.107,2.742,5.06c0.583,1.953,0.87,4.065,0.87,6.355V801.518z M442.229,798.887
	c0.075-2.579-0.446-4.604-1.549-6.08c-1.108-1.471-2.817-2.207-5.141-2.207c-1.16,0-2.183,0.218-3.042,0.653
	c-0.86,0.44-1.587,1.025-2.155,1.776c-0.572,0.74-1.007,1.61-1.31,2.626c-0.311,1.005-0.487,2.092-0.534,3.231H442.229z"/>
<path fill="#FFFFFF" d="M483.128,809.551c0,1.849-0.334,3.485-1.033,4.895c-0.697,1.408-1.676,2.594-2.939,3.542
	c-1.271,0.953-2.768,1.663-4.503,2.134c-1.728,0.477-3.589,0.715-5.614,0.715c-1.22,0-2.388-0.094-3.491-0.274
	c-1.108-0.182-2.1-0.414-2.97-0.688c-0.886-0.28-1.619-0.575-2.201-0.86c-0.583-0.3-1.002-0.569-1.271-0.823
	c-0.272-0.254-0.479-0.658-0.616-1.207c-0.153-0.549-0.223-1.356-0.223-2.424c0-0.704,0.01-1.273,0.069-1.703
	c0.047-0.426,0.122-0.762,0.223-1.021c0.09-0.249,0.212-0.425,0.365-0.513c0.143-0.088,0.329-0.13,0.536-0.13
	c0.28,0,0.673,0.155,1.199,0.456c0.513,0.311,1.165,0.642,1.944,1.004c0.774,0.373,1.688,0.715,2.722,1.026
	c1.039,0.311,2.212,0.476,3.527,0.476c0.826,0,1.569-0.082,2.211-0.258c0.647-0.166,1.204-0.415,1.681-0.726
	c0.477-0.321,0.833-0.726,1.072-1.207c0.249-0.486,0.365-1.051,0.365-1.683c0-0.73-0.223-1.357-0.668-1.881
	c-0.456-0.522-1.054-0.979-1.797-1.372c-0.743-0.389-1.583-0.746-2.525-1.098c-0.932-0.337-1.888-0.715-2.879-1.13
	c-0.987-0.414-1.947-0.88-2.885-1.424c-0.94-0.533-1.776-1.196-2.514-1.973c-0.749-0.777-1.347-1.72-1.797-2.808
	c-0.445-1.098-0.668-2.413-0.668-3.946c0-1.554,0.296-2.988,0.917-4.289c0.598-1.305,1.479-2.413,2.621-3.346
	c1.145-0.922,2.536-1.646,4.185-2.154c1.642-0.507,3.488-0.761,5.536-0.761c1.023,0,2.015,0.067,2.971,0.212
	c0.958,0.146,1.838,0.332,2.607,0.549c0.779,0.218,1.438,0.456,1.979,0.715c0.531,0.26,0.906,0.477,1.145,0.652
	c0.23,0.188,0.404,0.373,0.495,0.555c0.101,0.187,0.168,0.398,0.223,0.658c0.046,0.248,0.096,0.569,0.126,0.952
	c0.031,0.368,0.055,0.839,0.055,1.398c0,0.653-0.023,1.196-0.055,1.605c-0.031,0.42-0.096,0.746-0.186,0.995
	c-0.083,0.238-0.2,0.403-0.334,0.486c-0.148,0.088-0.329,0.124-0.528,0.124c-0.217,0-0.552-0.124-1.015-0.372
	c-0.466-0.26-1.033-0.539-1.732-0.824c-0.691-0.295-1.502-0.574-2.408-0.823c-0.917-0.259-1.968-0.384-3.118-0.384
	c-0.839,0-1.548,0.084-2.165,0.26c-0.603,0.166-1.108,0.404-1.499,0.725c-0.394,0.321-0.681,0.689-0.875,1.113
	c-0.197,0.42-0.293,0.881-0.293,1.373c0,0.756,0.233,1.388,0.689,1.896c0.466,0.513,1.083,0.958,1.831,1.347
	c0.764,0.394,1.616,0.756,2.577,1.098c0.966,0.342,1.937,0.715,2.923,1.119c0.979,0.394,1.955,0.859,2.916,1.403
	c0.961,0.544,1.831,1.196,2.572,1.974c0.764,0.776,1.375,1.709,1.836,2.786C482.9,806.779,483.128,808.064,483.128,809.551"/>
<path fill="#FFFFFF" d="M542.841,787.094c0,2.652-0.42,4.998-1.246,7.049c-0.828,2.041-2.032,3.766-3.612,5.169
	c-1.574,1.398-3.527,2.455-5.829,3.19c-2.297,0.735-5,1.098-8.123,1.098h-3.947v15.087c0,0.243-0.075,0.456-0.228,0.652
	c-0.166,0.192-0.43,0.348-0.79,0.477c-0.363,0.119-0.86,0.218-1.458,0.296c-0.611,0.072-1.391,0.108-2.346,0.108
	c-0.922,0-1.696-0.036-2.313-0.108c-0.619-0.078-1.119-0.177-1.474-0.296c-0.37-0.129-0.626-0.284-0.769-0.477
	c-0.148-0.196-0.223-0.409-0.223-0.652v-42.516c0-1.14,0.298-1.999,0.891-2.568c0.596-0.57,1.391-0.86,2.349-0.86h11.148
	c1.114,0,2.18,0.037,3.193,0.125c1.007,0.088,2.222,0.27,3.639,0.549c1.411,0.279,2.838,0.787,4.296,1.549
	c1.442,0.761,2.678,1.714,3.703,2.869c1.028,1.154,1.802,2.512,2.333,4.055C542.568,783.432,542.841,785.172,542.841,787.094
	 M532.801,787.783c0-1.658-0.303-3.015-0.88-4.092c-0.583-1.067-1.305-1.859-2.157-2.372c-0.85-0.508-1.746-0.829-2.675-0.964
	c-0.943-0.135-1.909-0.207-2.911-0.207h-4.094v16.035h4.312c1.539,0,2.81-0.207,3.856-0.622c1.038-0.403,1.883-0.989,2.53-1.729
	c0.668-0.746,1.16-1.632,1.499-2.673C532.633,790.124,532.801,789.005,532.801,787.783"/>
<path fill="#FFFFFF" d="M581.226,786.146c0,0.119-0.016,0.27-0.021,0.435c-0.01,0.166-0.047,0.357-0.078,0.564
	c-0.031,0.212-0.077,0.445-0.149,0.71c-0.058,0.27-0.135,0.58-0.233,0.922l-9.789,29.459c-0.119,0.414-0.284,0.751-0.486,1.015
	c-0.207,0.249-0.549,0.456-1.025,0.596c-0.477,0.15-1.129,0.243-1.938,0.295c-0.813,0.052-1.875,0.073-3.189,0.073
	c-1.295,0-2.352-0.031-3.165-0.094c-0.813-0.057-1.455-0.166-1.911-0.306c-0.466-0.149-0.808-0.347-1.005-0.605
	c-0.212-0.254-0.378-0.58-0.497-0.974l-9.788-29.459c-0.155-0.497-0.265-0.933-0.348-1.315c-0.077-0.404-0.134-0.674-0.145-0.85
	c-0.011-0.171-0.021-0.326-0.021-0.466c0-0.238,0.066-0.456,0.201-0.643c0.135-0.182,0.363-0.337,0.71-0.456
	s0.808-0.207,1.403-0.259c0.611-0.052,1.347-0.078,2.248-0.078c1.005,0,1.808,0.031,2.413,0.099c0.611,0.063,1.088,0.14,1.445,0.249
	c0.353,0.113,0.601,0.274,0.751,0.481c0.145,0.212,0.264,0.456,0.357,0.746l7.416,23.922l0.213,0.912l0.228-0.912l7.303-23.922
	c0.077-0.29,0.187-0.534,0.353-0.746c0.16-0.207,0.398-0.368,0.746-0.481c0.342-0.109,0.797-0.187,1.367-0.249
	c0.569-0.067,1.32-0.099,2.247-0.099c0.901,0,1.626,0.026,2.206,0.078c0.57,0.052,1.016,0.14,1.332,0.259
	c0.315,0.119,0.533,0.274,0.662,0.456C581.158,785.69,581.226,785.908,581.226,786.146"/>
<path fill="#FFFFFF" d="M607.773,815.543c0,1.072-0.066,1.896-0.207,2.465c-0.119,0.575-0.305,0.975-0.533,1.202
	c-0.207,0.228-0.533,0.435-0.963,0.621c-0.414,0.187-0.917,0.337-1.492,0.477c-0.574,0.135-1.196,0.238-1.859,0.311
	c-0.673,0.073-1.352,0.114-2.029,0.114c-1.828,0-3.414-0.238-4.75-0.694c-1.336-0.466-2.444-1.181-3.314-2.144
	c-0.881-0.964-1.533-2.17-1.947-3.636c-0.414-1.461-0.621-3.186-0.621-5.18v-16.687h-3.9c-0.461,0-0.813-0.296-1.062-0.86
	c-0.238-0.575-0.373-1.533-0.373-2.869c0-0.704,0.031-1.306,0.099-1.792s0.155-0.87,0.274-1.149c0.114-0.274,0.27-0.477,0.466-0.601
	c0.176-0.119,0.384-0.188,0.632-0.188h3.864v-7.271c0-0.237,0.066-0.455,0.196-0.652c0.146-0.191,0.384-0.357,0.741-0.486
	c0.347-0.135,0.823-0.238,1.424-0.301c0.596-0.052,1.326-0.093,2.206-0.093c0.901,0,1.652,0.041,2.248,0.093
	c0.601,0.063,1.067,0.166,1.403,0.301c0.337,0.129,0.586,0.295,0.73,0.486c0.15,0.197,0.228,0.415,0.228,0.652v7.271h7.085
	c0.238,0,0.456,0.068,0.632,0.188c0.182,0.124,0.332,0.326,0.456,0.601c0.119,0.279,0.218,0.663,0.27,1.149
	c0.072,0.486,0.098,1.088,0.098,1.792c0,1.336-0.119,2.294-0.367,2.869c-0.243,0.564-0.601,0.86-1.057,0.86h-7.116v15.299
	c0,1.771,0.27,3.107,0.834,3.998c0.554,0.881,1.549,1.336,2.988,1.336c0.497,0,0.927-0.041,1.315-0.135
	c0.394-0.082,0.741-0.176,1.047-0.289c0.3-0.114,0.559-0.202,0.766-0.291c0.207-0.088,0.395-0.129,0.57-0.129
	c0.145,0,0.279,0.041,0.425,0.129c0.124,0.089,0.228,0.249,0.3,0.508c0.078,0.26,0.146,0.602,0.197,1.047
	C607.748,814.3,607.773,814.859,607.773,815.543"/>
<path fill="#FFFFFF" d="M626.725,814.734c0,2.27-0.394,3.792-1.191,4.568c-0.787,0.777-2.206,1.171-4.257,1.171
	c-2.041,0-3.46-0.384-4.231-1.155c-0.782-0.762-1.171-2.222-1.171-4.361c0-2.283,0.399-3.821,1.191-4.604
	c0.787-0.777,2.222-1.166,4.283-1.166c2.03,0,3.429,0.379,4.205,1.146C626.336,811.1,626.725,812.57,626.725,814.734"/>
<path fill="#FFFFFF" d="M682.302,815.979c0,0.729-0.021,1.346-0.088,1.849c-0.063,0.491-0.155,0.911-0.259,1.237
	c-0.135,0.332-0.285,0.564-0.467,0.715c-0.186,0.145-0.403,0.218-0.642,0.218h-21.659c-0.809,0-1.481-0.238-2.025-0.715
	c-0.554-0.477-0.823-1.248-0.823-2.315v-42.914c0-0.243,0.077-0.471,0.238-0.658c0.155-0.191,0.425-0.352,0.787-0.476
	c0.362-0.119,0.859-0.218,1.471-0.29c0.622-0.072,1.394-0.109,2.331-0.109c0.942,0,1.725,0.037,2.33,0.109
	c0.611,0.072,1.098,0.171,1.461,0.29c0.362,0.124,0.632,0.284,0.781,0.476c0.166,0.188,0.244,0.415,0.244,0.658v38.015h14.864
	c0.238,0,0.456,0.067,0.642,0.202c0.182,0.146,0.332,0.363,0.467,0.652c0.104,0.311,0.196,0.71,0.259,1.212
	C682.281,814.642,682.302,815.242,682.302,815.979"/>
<path fill="#FFFFFF" d="M706.773,815.543c0,1.072-0.072,1.896-0.207,2.465c-0.125,0.575-0.301,0.975-0.528,1.202
	c-0.218,0.228-0.539,0.435-0.964,0.621s-0.916,0.337-1.502,0.477c-0.569,0.135-1.191,0.238-1.859,0.311
	c-0.668,0.073-1.341,0.114-2.024,0.114c-1.823,0-3.408-0.238-4.744-0.694c-1.337-0.466-2.444-1.181-3.325-2.144
	c-0.87-0.964-1.522-2.17-1.947-3.636c-0.409-1.461-0.606-3.186-0.606-5.18v-16.687h-3.915c-0.467,0-0.803-0.296-1.052-0.86
	c-0.248-0.575-0.372-1.533-0.372-2.869c0-0.704,0.03-1.306,0.093-1.792c0.062-0.486,0.15-0.87,0.279-1.149
	c0.109-0.274,0.27-0.477,0.446-0.601c0.196-0.119,0.414-0.188,0.652-0.188h3.868v-7.271c0-0.237,0.058-0.455,0.197-0.652
	c0.14-0.191,0.378-0.357,0.725-0.486c0.357-0.135,0.829-0.238,1.425-0.301c0.601-0.052,1.336-0.093,2.217-0.093
	c0.891,0,1.642,0.041,2.237,0.093c0.601,0.063,1.066,0.166,1.408,0.301c0.342,0.129,0.591,0.295,0.735,0.486
	c0.146,0.197,0.218,0.415,0.218,0.652v7.271h7.085c0.249,0,0.456,0.068,0.643,0.188c0.182,0.124,0.331,0.326,0.455,0.601
	c0.114,0.279,0.218,0.663,0.27,1.149c0.063,0.486,0.094,1.088,0.094,1.792c0,1.336-0.114,2.294-0.363,2.869
	c-0.248,0.564-0.601,0.86-1.066,0.86h-7.116v15.299c0,1.771,0.28,3.107,0.834,3.998c0.564,0.881,1.559,1.336,2.999,1.336
	c0.492,0,0.927-0.041,1.315-0.135c0.394-0.082,0.735-0.176,1.046-0.289c0.301-0.114,0.555-0.202,0.767-0.291
	c0.202-0.088,0.383-0.129,0.56-0.129c0.15,0,0.29,0.041,0.424,0.129c0.135,0.089,0.238,0.249,0.301,0.508
	c0.078,0.26,0.155,0.602,0.207,1.047C706.742,814.3,706.773,814.859,706.773,815.543"/>
<path fill="#FFFFFF" d="M744.975,818.754c0,0.27-0.072,0.486-0.187,0.674c-0.119,0.186-0.331,0.336-0.622,0.455
	c-0.289,0.125-0.684,0.207-1.181,0.259c-0.507,0.052-1.118,0.073-1.849,0.073c-0.782,0-1.424-0.021-1.9-0.073
	c-0.482-0.052-0.881-0.134-1.187-0.259c-0.306-0.119-0.522-0.27-0.657-0.455c-0.135-0.188-0.202-0.404-0.202-0.674v-3.62
	c-1.673,1.808-3.435,3.206-5.278,4.205c-1.833,1-3.873,1.497-6.121,1.497c-2.48,0-4.589-0.486-6.298-1.439
	c-1.709-0.969-3.107-2.264-4.195-3.89c-1.093-1.632-1.864-3.532-2.351-5.718c-0.492-2.181-0.736-4.48-0.736-6.883
	c0-2.9,0.311-5.506,0.933-7.821c0.616-2.305,1.528-4.282,2.724-5.914c1.191-1.626,2.673-2.89,4.455-3.761
	c1.771-0.88,3.822-1.314,6.132-1.314c1.833,0,3.485,0.372,4.967,1.118c1.476,0.741,2.957,1.828,4.417,3.263v-17.64
	c0-0.249,0.068-0.456,0.203-0.653c0.139-0.196,0.377-0.357,0.729-0.497c0.357-0.129,0.818-0.238,1.409-0.311
	c0.585-0.072,1.315-0.114,2.227-0.114c0.901,0,1.643,0.042,2.217,0.114c0.601,0.072,1.057,0.182,1.398,0.311
	c0.342,0.14,0.58,0.301,0.725,0.497c0.15,0.197,0.229,0.404,0.229,0.653V818.754z M735.838,796.991
	c-1.31-1.657-2.568-2.921-3.775-3.802c-1.206-0.875-2.47-1.311-3.775-1.311c-1.201,0-2.237,0.291-3.092,0.892
	c-0.87,0.595-1.559,1.393-2.077,2.388c-0.528,1.004-0.922,2.113-1.17,3.346c-0.259,1.232-0.394,2.49-0.394,3.78
	c0,1.362,0.119,2.688,0.342,3.983c0.212,1.289,0.569,2.439,1.066,3.443c0.498,1.016,1.171,1.828,1.989,2.424
	c0.828,0.622,1.874,0.922,3.148,0.922c0.632,0,1.243-0.093,1.844-0.279c0.596-0.176,1.212-0.477,1.823-0.891
	c0.621-0.414,1.259-0.959,1.922-1.627c0.657-0.673,1.372-1.491,2.148-2.455V796.991z"/>
<path fill="#939598" d="M766.515,814.734c0,2.27-0.394,3.792-1.187,4.568c-0.792,0.777-2.206,1.171-4.246,1.171
	c-2.046,0-3.471-0.384-4.242-1.155c-0.782-0.762-1.165-2.222-1.165-4.361c0-2.283,0.383-3.821,1.19-4.604
	c0.788-0.777,2.217-1.166,4.289-1.166c2.02,0,3.413,0.379,4.195,1.146C766.126,811.1,766.515,812.57,766.515,814.734"/>
</svg>
